<?xml version='1.0' encoding='iso-8859-1'?>
<svg version="1.1" xmlns="http://www.w3.org/2000/svg" viewBox="0 0 30 30" xmlns:xlink="http://www.w3.org/1999/xlink" enable-background="new 0 0 30 30">
  <g>
    <g>
      <path fill="#020400" d="M22.569,6.449l1.263-1.895l-0.015-0.01C23.923,4.386,24,4.205,24,4c0-0.553-0.448-1-1-1    c-0.347,0-0.637,0.188-0.817,0.455l-0.015-0.01l-1.311,1.966c-1.483-0.749-3.126-1.229-4.868-1.361C15.991,4.032,16,4.018,16,4V2    h2c0.552,0,1-0.447,1-1c0-0.553-0.448-1-1-1h-6c-0.552,0-1,0.447-1,1c0,0.553,0.448,1,1,1h2v2c0,0.018,0.009,0.032,0.01,0.05    C7.294,4.558,2,10.154,2,17c0,7.18,5.82,13,13,13s13-5.82,13-13C28,12.648,25.854,8.806,22.569,6.449z M15,28    C8.925,28,4,23.075,4,17S8.925,6,15,6s11,4.925,11,11S21.075,28,15,28z"/>
    </g>
  </g>
  <g>
    <g>
      <path fill="#020400" d="m21.695,10.306c-0.408-0.408-1.07-0.408-1.478,0l-5.911,5.91c-0.408,0.408-0.408,1.07 0,1.479 0.408,0.407 1.069,0.407 1.477,0l5.911-5.911c0.408-0.409 0.408-1.07 0.001-1.478z"/>
    </g>
  </g>
</svg>
